# xmcd
#
# Track frame offsets: 
#        150
#        16557
#        31922
#        46292
#        63381
#        77544
#        92648
#        108941
#        123432
#        136665
#        153446
#        166389
#        182902
#        195998
#        210461
#        222347
#        237102
#        251831
#        265286
#        279845
#        294130
#        307293
#
# Disc length: 4285 seconds
#
# Revision: 0
# Processed by: cddbd v1.5.2PL0 Copyright (c) Steve Scherf et al.
# Submitted via: ExactAudioCopy v0.95b4
#
DISCID=2610bb16
DTITLE=Various Artist - Hitparade der Volksmusik Vol. 5
DYEAR=1996
DGENRE=Folk
TTITLE0=Maria and Margot Hellwig - Weißwurscht
TTITLE1=Original Lechschwaben - Des is der Bayernblues
TTITLE2=Duo Treibsand - Dich hat der Himmel gern
TTITLE3=Steffi and Bert - Wenn ich Dich jetzt bald kriege
TTITLE4=Peter Lorenz - Sag mir wovon träumst Du?
TTITLE5=Michaela Christ - Südwind
TTITLE6=Christian Bern -Schenk mir Dein Herz
TTITLE7=Original Fahrende Musikanten - Der Norden ist schön
TTITLE8=Die Steintaler mit Bettina - Bleib doch noch hier
TTITLE9=Geschwister Hauser - Wir setzten uns auf eine Wolke
TTITLE10=Werner Art - Wenn Musikanten träumen
TTITLE11=Maria and Margot Hellwig and Duo Treibsand - Freunde singt mit un
TTITLE11=s ein Lied
TTITLE12=Stefanie Simon - Beim Fensterputzen
TTITLE13=Jan Gregor mit Gruppe Romanze - Heimat
TTITLE14=Maria and Margot Hellwig - Und doch wir leben noch
TTITLE15=Orchester Marc Alpina - Solang es Dir gut geht
TTITLE16=Dirk Spielberg - Mein Traum
TTITLE17=Die Spessartthaler - Happy Blasmusik
TTITLE18=Bert Beel - Tanz mit mir in die Nacht
TTITLE19=Ralf Buchholz and Rubina - Liebe und lebe jeden Tag
TTITLE20=Andreas - Taverne Casablanca
TTITLE21=Trompetentrio Stappert - Heimatfrieden
EXTD=Maria und Margot Hellwig präsentieren
EXTT0=
EXTT1=
EXTT2=
EXTT3=
EXTT4=
EXTT5=
EXTT6=
EXTT7=
EXTT8=
EXTT9=
EXTT10=
EXTT11=
EXTT12=
EXTT13=
EXTT14=
EXTT15=
EXTT16=
EXTT17=
EXTT18=
EXTT19=
EXTT20=
EXTT21=
PLAYORDER=
